<?xml version="1.0" encoding="UTF-8" standalone="no"?>
<!-- Created with Inkscape (http://www.inkscape.org/) -->

<svg
   width="153.59792mm"
   height="109.53876mm"
   viewBox="0 0 153.59792 109.53876"
   version="1.1"
   id="svg1"
   inkscape:version="1.4 (e7c3feb100, 2024-10-09)"
   sodipodi:docname="bot-illustration.svg"
   xmlns:inkscape="http://www.inkscape.org/namespaces/inkscape"
   xmlns:sodipodi="http://sodipodi.sourceforge.net/DTD/sodipodi-0.dtd"
   xmlns="http://www.w3.org/2000/svg"
   xmlns:svg="http://www.w3.org/2000/svg">
  <sodipodi:namedview
     id="namedview1"
     pagecolor="#ffffff"
     bordercolor="#000000"
     borderopacity="0.25"
     inkscape:showpageshadow="2"
     inkscape:pageopacity="0.0"
     inkscape:pagecheckerboard="0"
     inkscape:deskcolor="#d1d1d1"
     inkscape:document-units="mm"
     showborder="false"
     inkscape:zoom="0.70644641"
     inkscape:cx="83.516597"
     inkscape:cy="357.42272"
     inkscape:window-width="1920"
     inkscape:window-height="1011"
     inkscape:window-x="0"
     inkscape:window-y="0"
     inkscape:window-maximized="1"
     inkscape:current-layer="layer1" />
  <defs
     id="defs1" />
  <g
     inkscape:label="Layer 1"
     inkscape:groupmode="layer"
     id="layer1"
     transform="translate(-104.775,-23.547924)">
    <path
       d="M 246.70628,43.821819 H 113.99297 a 3.6528375,3.6528375 0 0 0 -3.65284,3.652837 v 73.945394 a 3.6528375,3.6528375 0 0 0 3.65284,3.65283 h 132.71331 a 3.6528375,3.6528375 0 0 0 3.65284,-3.65283 V 47.474656 a 3.6528375,3.6528375 0 0 0 -3.65284,-3.652837 z"
       fill="#3f3d56"
       id="path11"
       style="stroke-width:0.264583" />
    <rect
       x="115.23746"
       y="50.277382"
       width="130.22432"
       height="73.459869"
       fill="#ffffff"
       id="rect11"
       style="stroke-width:0.264583" />
    <circle
       cx="180.23831"
       cy="46.938293"
       r="1.3356298"
       fill="#ffffff"
       id="circle11"
       style="stroke-width:0.264583" />
    <polygon
       points="327.996,100.983 679.425,378.627 327.996,378.627 "
       fill="#f2f2f2"
       style="isolation:isolate"
       id="polygon11"
       transform="matrix(0.26458333,0,0,0.26458333,28.455207,23.558942)" />
    <path
       d="m 254.01553,122.40162 h -12.70908 v -0.91569 a 0.18154914,0.18154914 0 0 0 -0.18154,-0.18155 h -4.35742 a 0.18155179,0.18155179 0 0 0 -0.18157,0.18154 v 0.9157 h -2.72331 v -0.91569 a 0.18155179,0.18155179 0 0 0 -0.18156,-0.18155 h -4.35739 a 0.18155179,0.18155179 0 0 0 -0.18156,0.18155 v 0 0.91569 h -2.72335 v -0.91569 a 0.18155179,0.18155179 0 0 0 -0.18156,-0.18155 h -4.35741 a 0.18155179,0.18155179 0 0 0 -0.18155,0.18155 v 0 0.91569 h -2.72336 v -0.91569 a 0.18155179,0.18155179 0 0 0 -0.18155,-0.18155 h -4.3574 a 0.18154914,0.18154914 0 0 0 -0.18156,0.18154 v 0.9157 h -2.72335 v -0.91569 a 0.18155179,0.18155179 0 0 0 -0.18156,-0.18155 h -4.35739 a 0.18155179,0.18155179 0 0 0 -0.18156,0.18155 v 0 0.91569 h -2.72338 v -0.91569 a 0.18155179,0.18155179 0 0 0 -0.18155,-0.18155 h -4.35739 a 0.18155179,0.18155179 0 0 0 -0.18156,0.18155 v 0 0.91569 h -2.72335 v -0.91569 a 0.18155179,0.18155179 0 0 0 -0.18156,-0.18155 h -34.13288 a 0.18155179,0.18155179 0 0 0 -0.18156,0.18155 v 0 0.91569 h -2.72337 v -0.91569 a 0.18155179,0.18155179 0 0 0 -0.18156,-0.18155 h -4.35737 a 0.18155179,0.18155179 0 0 0 -0.18156,0.18155 v 0 0.91569 h -2.72337 v -0.91569 a 0.18154914,0.18154914 0 0 0 -0.18155,-0.18155 h -4.3574 a 0.18155179,0.18155179 0 0 0 -0.18156,0.18155 v 0 0.91569 h -2.72337 v -0.91569 a 0.18155179,0.18155179 0 0 0 -0.18156,-0.18155 h -4.35739 a 0.18155179,0.18155179 0 0 0 -0.18155,0.18155 v 0 0.91569 h -2.72336 v -0.91569 a 0.18155179,0.18155179 0 0 0 -0.18156,-0.18155 h -4.35739 a 0.18155179,0.18155179 0 0 0 -0.18156,0.18155 v 0 0.91569 h -2.72337 v -0.91569 a 0.18155179,0.18155179 0 0 0 -0.18156,-0.18155 h -4.35739 a 0.18155444,0.18155444 0 0 0 -0.18156,0.18154 v 0.9157 h -2.72335 v -0.91569 a 0.18155179,0.18155179 0 0 0 -0.18155,-0.18155 h -4.35741 a 0.18155708,0.18155708 0 0 0 -0.18156,0.18155 v 0 0.91569 h -8.35166 a 4.3573858,4.3573858 0 0 0 -4.35738,4.35739 v 1.97031 a 4.3573832,4.3573832 0 0 0 4.35738,4.35737 h 144.88315 a 4.3573911,4.3573911 0 0 0 4.35739,-4.35737 v -1.97031 a 4.3573832,4.3573832 0 0 0 -4.35739,-4.35739 z"
       fill="#3f3d56"
       id="path12"
       style="stroke-width:0.264583" />
    <path
       d="m 182.85455,114.10489 a 3.1986749,3.1986749 0 0 1 -0.14657,0.30249 3.8700868,3.8700868 0 0 1 -1.1729,1.31947 3.8533625,3.8533625 0 0 1 -6.07111,-3.15132 v -0.62192 h 0.52778 a 13.478333,13.478333 0 0 0 6.8628,2.15128 z"
       fill="#3f3d56"
       id="path13"
       style="stroke-width:0.264583" />
    <path
       d="m 190.38564,112.13571 v 0.43982 a 3.8520899,3.8520899 0 0 1 -7.2348,1.84418 3.2174021,3.2174021 0 0 1 -0.15275,-0.31019 c 0.11266,0.003 0.22373,0.005 0.33646,0.005 a 13.498457,13.498457 0 0 0 7.05109,-1.97845 z"
       fill="#3f3d56"
       id="path14"
       style="stroke-width:0.264583" />
    <path
       d="m 195.57707,65.625292 c -0.11574,-0.01696 -0.23299,-0.02778 -0.35032,-0.03549 a 12.959879,12.959879 0 0 1 0.25779,9.677701 c 0.11725,-0.01389 0.23299,-0.0324 0.34874,-0.05401 a 4.8615679,4.8615679 0 0 0 -0.25621,-9.588201 z"
       fill="#3f3d56"
       id="path15"
       style="stroke-width:0.264583" />
    <path
       d="m 171.44227,65.589801 c -0.11733,0.0077 -0.23458,0.01852 -0.35032,0.03549 a 4.8615811,4.8615811 0 0 0 -0.2562,9.588201 c 0.11574,0.02162 0.23148,0.04013 0.34873,0.05401 a 12.960834,12.960834 0 0 1 0.25779,-9.677701 z"
       fill="#3f3d56"
       id="path16"
       style="stroke-width:0.264583" />
    <path
       d="m 195.57707,65.625292 a 13.270394,13.270394 0 1 0 1.02941,5.123585 13.289547,13.289547 0 0 0 -1.02941,-5.123585 z m -0.0925,9.64221 a 12.959879,12.959879 0 1 1 0.81329,-4.518625 12.982183,12.982183 0 0 1 -0.81329,4.518625 z"
       fill="#3f3d56"
       id="path17"
       style="stroke-width:0.264583" />
    <path
       d="m 190.12484,67.739543 h -13.58058 a 2.7006841,2.7006841 0 0 0 0,5.401368 h 13.58058 a 2.7006841,2.7006841 0 0 0 0,-5.401368 z"
       fill="#3f3d56"
       id="path18"
       style="stroke-width:0.264583" />
    <path
       d="m 195.48454,93.81118 q -0.0742,-0.136586 -0.15282,-0.268523 c -0.002,-0.0031 -0.003,-0.0046 -0.005,-0.0077 a 13.88364,13.88364 0 1 0 -12.61915,20.872433 c 0.14657,0.008 0.29471,0.0123 0.44286,0.0123 0.0618,0.003 0.12192,0.003 0.18371,0.003 a 13.787017,13.787017 0 0 0 7.05109,-1.92752 13.981425,13.981425 0 0 0 5.39211,-5.79489 c 0.002,-0.003 0.003,-0.005 0.005,-0.008 0.0463,-0.0926 0.0911,-0.18673 0.13586,-0.28241 a 13.869291,13.869291 0 0 0 -0.43365,-12.59908 z m 0.1327,12.51419 q -0.0671,0.14354 -0.13888,0.28242 a 13.675288,13.675288 0 0 1 -5.09272,5.52792 13.498457,13.498457 0 0 1 -7.05109,1.97844 c -0.11273,0 -0.2238,-0.002 -0.33646,-0.005 q -0.0718,0 -0.14354,-0.005 a 13.580099,13.580099 0 1 1 12.16393,-20.483528 c 0.002,0.0031 0.003,0.0046 0.005,0.0077 0.054,0.08797 0.10648,0.177467 0.15591,0.266978 a 13.563335,13.563335 0 0 1 0.43826,12.42931 z"
       fill="#3f3d56"
       id="path19"
       style="stroke-width:0.264583" />
    <path
       d="m 194.00919,94.221681 a 1.6052059,1.6052059 0 0 0 -0.92596,-0.297834 h -6.0696 a 1.5941781,1.5941781 0 1 0 0,3.188356 h 6.0696 a 1.5765939,1.5765939 0 0 0 0.32251,-0.03241 1.7513935,1.7513935 0 0 0 0.30865,-0.09723 1.5935378,1.5935378 0 0 0 0.29479,-2.760871 z"
       fill="#3f3d56"
       id="path20"
       style="stroke-width:0.264583" />
    <circle
       cx="187.41774"
       cy="95.517929"
       r="0.80934715"
       fill="#f1f1f1"
       id="circle20"
       style="stroke-width:0.264583" />
    <circle
       cx="190.04813"
       cy="95.517929"
       r="0.80934715"
       fill="#f1f1f1"
       id="circle21"
       style="stroke-width:0.264583" />
    <circle
       cx="192.6785"
       cy="95.517929"
       r="0.80934715"
       fill="#25d366"
       id="circle22"
       style="stroke-width:0.264583" />
    <path
       d="m 223.16126,68.843226 c -2.10476,1.262274 -5.8547,2.843935 -9.68673,1.218491 l -2.47712,-1.05074 4.96396,-5.564542 a 23.707251,23.707251 0 1 1 7.19989,5.396791 z"
       fill="#ffffff"
       id="path22"
       style="stroke-width:0.264583" />
    <path
       d="m 223.17417,69.143155 c -2.02246,1.187397 -5.8751,2.82838 -9.80296,1.162074 l -2.81702,-1.194888 5.05208,-5.663221 a 23.97189,23.97189 0 1 1 34.02014,1.829345 v 0 a 23.865014,23.865014 0 0 1 -26.45224,3.86669 z m 27.71247,-37.372266 a 23.442684,23.442684 0 1 0 -34.7293,31.49782 l 0.15988,0.176345 -4.87658,5.466591 2.13721,0.906544 c 3.79347,1.609196 7.54731,-0.0624 9.44733,-1.201864 l 0.12283,-0.07377 0.12886,0.06266 A 23.442639,23.442639 0 0 0 250.88667,31.7709 Z"
       fill="#25d366"
       id="path23"
       style="stroke-width:0.264583" />
    <path
       d="M 253.53594,47.372043 A 21.817584,21.817584 0 0 0 233.64762,25.641269 c 0.63549,-0.05567 1.2783,-0.08579 1.92823,-0.08579 a 21.816562,21.816562 0 0 1 0,43.633117 c -0.64895,0 -1.29066,-0.03051 -1.92518,-0.08606 A 21.817594,21.817594 0 0 0 253.53594,47.37204 Z"
       opacity="0.1"
       style="isolation:isolate;stroke-width:0.264583"
       id="path24" />
    <rect
       x="221.01146"
       y="43.021526"
       width="15.58916"
       height="1.4476756"
       fill="#25d366"
       id="rect24"
       style="stroke-width:0.264583" />
    <rect
       x="221.01146"
       y="48.02951"
       width="27.170593"
       height="1.4476756"
       fill="#25d366"
       id="rect25"
       style="stroke-width:0.264583" />
    <rect
       x="221.01146"
       y="53.037487"
       width="27.143993"
       height="1.4476756"
       fill="#25d366"
       id="rect26"
       style="stroke-width:0.264583" />
  </g>
</svg>
